<?xml version="1.0" encoding="utf-8"?>
<!-- Generator: Adobe Illustrator 21.0.0, SVG Export Plug-In . SVG Version: 6.00 Build 0)  -->
<svg version="1.1" id="Layer_1" xmlns="http://www.w3.org/2000/svg" xmlns:xlink="http://www.w3.org/1999/xlink" x="0px" y="0px"
	 viewBox="0 0 595.3 841.9" style="enable-background:new 0 0 595.3 841.9;" xml:space="preserve">
<style type="text/css">
	.st0{fill-rule:evenodd;clip-rule:evenodd;fill:url(#XMLID_11_);}
	.st1{fill-rule:evenodd;clip-rule:evenodd;fill:url(#XMLID_12_);}
	.st2{fill-rule:evenodd;clip-rule:evenodd;fill:url(#XMLID_13_);}
	.st3{fill:url(#XMLID_14_);}
</style>
<g id="XMLID_5_">
	<linearGradient id="XMLID_11_" gradientUnits="userSpaceOnUse" x1="182.2014" y1="440.2471" x2="305.822" y2="440.2471">
		<stop  offset="0" style="stop-color:#202229"/>
		<stop  offset="1" style="stop-color:#2F3787"/>
	</linearGradient>
	<path id="XMLID_10_" class="st0" d="M292.9,393.9c-14.3-10.8-34.7-7.9-45.5,6.4l-30.7,40.7c-3.1,4.4-5.7,8.4-15.1,10.5
		s-19.3-2.8-19.3-2.8l17.2,15.6l0,0l20.4,19.6c0.2,0.2,0.4,0.4,0.7,0.6l0.8,0.8l0,0c0.5,0.4,1.1,0.9,1.6,1.3
		c14.3,10.8,34.7,7.9,45.5-6.4l30.7-40.7C310.1,425.1,307.2,404.7,292.9,393.9z M214.2,444.7C214.2,444.7,214.2,444.7,214.2,444.7
		L214.2,444.7L214.2,444.7z"/>
	<linearGradient id="XMLID_12_" gradientUnits="userSpaceOnUse" x1="355.0842" y1="442.5517" x2="436.792" y2="360.8439">
		<stop  offset="0" style="stop-color:#202229"/>
		<stop  offset="1" style="stop-color:#2F3787"/>
	</linearGradient>
	<path id="XMLID_2_" class="st1" d="M430.9,355.4c-14.3-10.8-34.7-7.9-45.5,6.4l-30.7,40.7c-10.8,14.3-7.9,34.7,6.4,45.5
		c14.3,10.8,34.7,7.9,45.5-6.4l30.7-40.7C448.1,386.6,445.2,366.2,430.9,355.4z"/>
	<linearGradient id="XMLID_13_" gradientUnits="userSpaceOnUse" x1="240.8126" y1="420.7758" x2="414.9426" y2="420.7758">
		<stop  offset="0" style="stop-color:#27509B"/>
		<stop  offset="1" style="stop-color:#77BFEE"/>
	</linearGradient>
	<path id="XMLID_6_" class="st2" d="M414.9,430.8l-40,52c0,0-8.7,10-21.3,10s-20.7-10-20.7-10l-59-73c0,0-5.3-6.9-15.8-6.9
		c-8,0-17.2,5.9-17.2,5.9l42-53c0,0,6.9-7,18.1-7c11.2,0,16.9,7,16.9,7l61,74c0,0,8,9,17.9,9C406.5,438.8,414.9,430.8,414.9,430.8z"
		/>
	<linearGradient id="XMLID_14_" gradientUnits="userSpaceOnUse" x1="148.6114" y1="381.8538" x2="214.6575" y2="381.8538">
		<stop  offset="0" style="stop-color:#27509B"/>
		<stop  offset="1" style="stop-color:#77BFEE"/>
	</linearGradient>
	<circle id="XMLID_1_" class="st3" cx="181.6" cy="381.9" r="33"/>
</g>
</svg>
