<?xml version="1.0" encoding="utf-8"?>
<!-- Generator: Adobe Illustrator 21.0.0, SVG Export Plug-In . SVG Version: 6.00 Build 0)  -->
<svg version="1.1" id="rocket" xmlns="http://www.w3.org/2000/svg" xmlns:xlink="http://www.w3.org/1999/xlink" x="0px" y="0px"
	 viewBox="0 0 154.1 259.1" style="enable-background:new 0 0 154.1 259.1;" xml:space="preserve">
<style type="text/css">
	.st0{clip-path:url(#SVGID_5_);}
	.st1{clip-path:url(#SVGID_6_);fill:url(#SVGID_7_);}
	.st2{clip-path:url(#SVGID_10_);}
	.st3{clip-path:url(#SVGID_11_);fill:url(#SVGID_12_);}
	.st4{fill:#2064ED;}
	.st5{fill:#E8E6EF;}
	.st6{opacity:0.61;fill:#CFE0E2;enable-background:new    ;}
	.st7{opacity:0.7;fill:#012226;enable-background:new    ;}
	.st8{fill:#3768F4;}
	.st9{fill:url(#SVGID_13_);}
	.st10{fill:#063A3A;}
	.st11{fill:#274C89;}
	.st12{fill:#1C73F2;}
</style>
<g>
	<g>
		<defs>
			<polygon id="SVGID_2_" points="1,1 2,1 1,2 			"/>
		</defs>
		<defs>
			<polygon id="SVGID_4_" points="-1,-1 -2,-1 -1,-2 			"/>
		</defs>
		<clipPath id="SVGID_5_">
			<use xlink:href="#SVGID_2_"  style="overflow:visible;"/>
		</clipPath>
		<clipPath id="SVGID_6_" class="st0">
			<use xlink:href="#SVGID_4_"  style="overflow:visible;"/>
		</clipPath>
		
			<linearGradient id="SVGID_7_" gradientUnits="userSpaceOnUse" x1="505.1405" y1="949.4374" x2="535.1635" y2="976.5325" gradientTransform="matrix(0.7458 -0.6661 -0.6661 -0.7458 317.6684 1100.8491)">
			<stop  offset="0" style="stop-color:#808080"/>
			<stop  offset="0.145" style="stop-color:#7A7A7A"/>
			<stop  offset="0.338" style="stop-color:#696969"/>
			<stop  offset="0.556" style="stop-color:#4E4E4E"/>
			<stop  offset="0.792" style="stop-color:#282828"/>
			<stop  offset="1" style="stop-color:#000000"/>
		</linearGradient>
		<path class="st1" d="M63.6,62.7C65.7,35.3,76.2,7.8,76.2,7.8c-18.9,24.2-24,55.3-24,55.3S63.6,62.7,63.6,62.7z"/>
	</g>
</g>
<g>
	<g>
		<defs>
			<polygon id="SVGID_8_" points="1,1 2,1 1,2 			"/>
		</defs>
		<defs>
			<polygon id="SVGID_9_" points="-1,-1 -2,-1 -1,-2 			"/>
		</defs>
		<clipPath id="SVGID_10_">
			<use xlink:href="#SVGID_8_"  style="overflow:visible;"/>
		</clipPath>
		<clipPath id="SVGID_11_" class="st2">
			<use xlink:href="#SVGID_9_"  style="overflow:visible;"/>
		</clipPath>
		
			<linearGradient id="SVGID_12_" gradientUnits="userSpaceOnUse" x1="485.3799" y1="932.5973" x2="382.123" y2="817.6243" gradientTransform="matrix(0.7458 -0.6661 -0.6661 -0.7458 317.6684 1100.8491)">
			<stop  offset="0" style="stop-color:#808080"/>
			<stop  offset="0.145" style="stop-color:#7A7A7A"/>
			<stop  offset="0.338" style="stop-color:#696969"/>
			<stop  offset="0.556" style="stop-color:#4E4E4E"/>
			<stop  offset="0.792" style="stop-color:#282828"/>
			<stop  offset="1" style="stop-color:#000000"/>
		</linearGradient>
		<path class="st3" d="M60.2,233.7l12-1.9c-18.3-108.4-8.6-169-8.6-169l-11.4,0.4C30.2,139.7,60.2,233.7,60.2,233.7L60.2,233.7z"/>
	</g>
</g>
<path class="st4" d="M97.4,236.1c0,2.6-5.2,4.7-11.7,4.7H70.3c-6.4,0-11.7-2.1-11.7-4.7v-4.5c0-2.6,5.2-4.7,11.7-4.7h15.4
	c6.4,0,11.7,2.1,11.7,4.7V236.1z M37.1,137.4c0,0-28,19.2-28,32v59.3l30-30L37.1,137.4z M117.5,137.4c0,0,28,19.2,28,32v59.3l-30-30
	L117.5,137.4z"/>
<path class="st5" d="M29.6,140.5c0.3,36.4,8.3,69.6,21.3,95.3c8.6-2.8,17.7-4.4,27.2-4.4c9.5-0.1,18.6,1.3,27.3,4
	c12.5-25.9,19.9-59.3,19.6-95.6C124.4,82,104.6,32.1,76.2,7.8C48.1,32.6,29.1,82.8,29.6,140.5L29.6,140.5z"/>
<path class="st6" d="M60.2,233.7l12-1.9c-18.3-108.4-8.6-169-8.6-169l-11.4,0.4C30.2,139.7,60.2,233.7,60.2,233.7L60.2,233.7z"/>
<path class="st7" d="M41.5,64l-2.1,6.7c0,0,40.7-5,75.7,0.1l-3.2-7.4C111.8,63.4,64.8,58,41.5,64z"/>
<path class="st8" d="M41.5,64c11.4-0.9,23.2-1.4,35.2-1.5s23.7,0.2,35.2,0.9c-8.6-23.7-21-43-35.6-55.6C61.7,20.6,49.7,40.2,41.5,64
	z"/>
<linearGradient id="SVGID_13_" gradientUnits="userSpaceOnUse" x1="505.1405" y1="949.4374" x2="535.1635" y2="976.5325" gradientTransform="matrix(0.7458 -0.6661 -0.6661 -0.7458 317.6684 1100.8491)">
	<stop  offset="0" style="stop-color:#EAEFEE"/>
	<stop  offset="0.45" style="stop-color:#F0F3F3"/>
	<stop  offset="1" style="stop-color:#FFFFFF"/>
</linearGradient>
<path class="st9" d="M63.6,62.7C65.7,35.3,76.2,7.8,76.2,7.8c-18.9,24.2-24,55.3-24,55.3S63.6,62.7,63.6,62.7z"/>
<path class="st10" d="M75.9,78.3c-14.8,0.1-26.7,12.2-26.6,27c0.1,14.8,12.2,26.7,27,26.6c14.8-0.1,26.7-12.2,26.5-27
	C102.7,90,90.6,78.1,75.9,78.3z"/>
<path class="st11" d="M75.9,86.4c-10.3,0.1-18.5,8.5-18.5,18.8c0.1,10.3,8.5,18.5,18.8,18.4s18.5-8.5,18.4-18.8
	C94.6,94.6,86.2,86.3,75.9,86.4z"/>
<path class="st12" d="M68.6,122.1c2.3,1,4.9,1.6,7.7,1.6c10.3-0.1,18.5-8.5,18.4-18.8c0-3.6-1.1-7-3-9.9c-0.3,0.3-0.7,0.5-1,0.8
	C82.6,102.4,72.5,111.4,68.6,122.1z"/>
<path class="st10" d="M79,139.9c-11.1,0.1-20,9.2-19.9,20.3s9.2,20,20.3,19.9s20-9.2,19.9-20.3C99.2,148.8,90.1,139.8,79,139.9z"/>
<path class="st11" d="M79.1,146.1c-7.7,0.1-13.9,6.4-13.8,14.1c0.1,7.7,6.4,13.9,14.1,13.8c7.7-0.1,13.9-6.4,13.8-14.1
	C93.1,152.2,86.8,146,79.1,146.1z"/>
<path class="st12" d="M73.5,172.8c1.8,0.8,3.7,1.2,5.8,1.2c7.7-0.1,13.9-6.4,13.8-14.1c0-2.7-0.8-5.3-2.2-7.4
	c-0.3,0.2-0.5,0.4-0.8,0.6C84.1,158,76.5,164.8,73.5,172.8z"/>
<path class="st10" d="M81.5,187.9c-7.8,0.1-14.1,6.5-14,14.3s6.5,14.1,14.3,14.1c7.8-0.1,14.1-6.5,14-14.3S89.3,187.8,81.5,187.9z"
	/>
<path class="st11" d="M81.5,192.2c-5.4,0-9.8,4.5-9.8,9.9s4.5,9.8,9.9,9.8s9.8-4.5,9.8-9.9S86.9,192.2,81.5,192.2z"/>
<path class="st12" d="M77.6,211.1c1.2,0.5,2.6,0.9,4.1,0.8c5.4,0,9.8-4.5,9.8-9.9c0-1.9-0.6-3.7-1.6-5.2c-0.2,0.1-0.4,0.3-0.5,0.4
	C85.1,200.7,79.7,205.5,77.6,211.1z"/>
</svg>
