<?xml version="1.0" encoding="iso-8859-1"?>
<!-- Generator: Adobe Illustrator 19.0.0, SVG Export Plug-In . SVG Version: 6.00 Build 0)  -->
<svg version="1.1" id="Layer_1" xmlns="http://www.w3.org/2000/svg" xmlns:xlink="http://www.w3.org/1999/xlink" x="0px" y="0px"
	 viewBox="0 0 512 512" style="enable-background:new 0 0 512 512;" xml:space="preserve">
<g id="Others">
</g>
<g id="Design">
</g>
<g id="SEO_x2F__Web">
	<g id="video">
		
			<radialGradient id="SVGID_1_" cx="256" cy="258" r="256" gradientTransform="matrix(1 0 0 -1 0 514)" gradientUnits="userSpaceOnUse">
			<stop  offset="0" style="stop-color:#04BE9E"/>
			<stop  offset="1" style="stop-color:#00A185"/>
		</radialGradient>
		<circle style="fill:url(#SVGID_1_);" cx="256" cy="256" r="256"/>
		<g>
			<g>
				<path style="fill:#2A3E4F;" d="M419.106,128H255v257h164.106c10.117,0,16.894-9.322,16.894-19.438V145.751
					C436,135.635,429.224,128,419.106,128z M425,362.285c0,2.443-1.607,4.715-4.051,4.715h-17.771c-2.445,0-5.178-2.271-5.178-4.715
					v-18.883c0-2.444,2.732-4.402,5.178-4.402h17.771c2.443,0,4.051,1.958,4.051,4.402V362.285z M425,313.411
					c0,2.444-1.607,4.589-4.051,4.589h-17.771c-2.445,0-5.178-2.145-5.178-4.589v-18.884c0-2.443,2.732-3.527,5.178-3.527h17.771
					c2.443,0,4.051,1.084,4.051,3.527V313.411z M425,265.648c0,2.443-1.607,5.352-4.051,5.352h-17.771
					c-2.445,0-5.178-2.908-5.178-5.352v-18.884c0-2.444,2.732-3.765,5.178-3.765h17.771c2.443,0,4.051,1.32,4.051,3.765V265.648z
					 M425,216.773c0,2.444-1.607,5.227-4.051,5.227h-17.771c-2.445,0-5.178-2.782-5.178-5.227v-17.771
					c0-2.444,2.732-4.002,5.178-4.002h17.771c2.443,0,4.051,1.558,4.051,4.002V216.773z M425,169.011
					c0,2.444-1.607,4.989-4.051,4.989h-17.771c-2.445,0-5.178-2.545-5.178-4.989v-18.883c0-2.444,2.732-4.128,5.178-4.128h17.771
					c2.443,0,4.051,1.684,4.051,4.128V169.011z"/>
			</g>
			<g>
				<path style="fill:#32495D;" d="M94.449,128C84.333,128,75,135.635,75,145.751v219.812C75,375.678,84.333,385,94.449,385H255V128
					H94.449z M115,362.557c0,2.454-1.989,4.443-4.443,4.443H92.443c-2.454,0-4.443-1.989-4.443-4.443v-19.113
					c0-2.454,1.989-4.443,4.443-4.443h18.113c2.454,0,4.443,1.989,4.443,4.443L115,362.557L115,362.557z M115,314.558
					c0,2.453-1.989,4.442-4.443,4.442H92.443c-2.454,0-4.443-1.989-4.443-4.442v-19.115c0-2.453,1.989-4.442,4.443-4.442h18.113
					c2.454,0,4.443,1.989,4.443,4.442L115,314.558L115,314.558z M115,266.558c0,2.453-1.989,4.442-4.443,4.442H92.443
					c-2.454,0-4.443-1.989-4.443-4.442v-19.115c0-2.453,1.989-4.442,4.443-4.442h18.113c2.454,0,4.443,1.989,4.443,4.442
					L115,266.558L115,266.558z M115,217.557c0,2.454-1.989,4.443-4.443,4.443H92.443c-2.454,0-4.443-1.989-4.443-4.443v-18.113
					c0-2.454,1.989-4.443,4.443-4.443h18.113c2.454,0,4.443,1.989,4.443,4.443L115,217.557L115,217.557z M115,169.557
					c0,2.454-1.989,4.443-4.443,4.443H92.443c-2.454,0-4.443-1.989-4.443-4.443v-19.113c0-2.454,1.989-4.443,4.443-4.443h18.113
					c2.454,0,4.443,1.989,4.443,4.443L115,169.557L115,169.557z"/>
			</g>
			<rect x="255" y="128" style="fill:#BDC3C7;" width="129" height="257"/>
			<rect x="126" y="128" style="fill:#FFFFFF;" width="129" height="257"/>
			<path style="fill:#EE483C;" d="M159.656,255.504c0,52.656,43.344,95.342,95.344,95.342V160.16
				C203,160.16,159.656,202.846,159.656,255.504z"/>
			<path style="fill:#C6362B;" d="M255,160.16v190.686c53,0,95.344-42.686,95.344-95.342C350.344,202.846,308,160.16,255,160.16z"/>
			<path style="fill:#FFFFFF;" d="M230.987,201.658c-6.662-3.846-11.987-0.699-11.987,6.996v93.697
				c0,7.694,5.35,10.842,12.012,6.996L255,295.508V215.5L230.987,201.658z"/>
			<path style="fill:#BDC3C7;" d="M313.422,248.508l-44.888-25.564L255,215.5v80.008l13.534-7.449l44.511-25.561
				C319.709,258.65,320.086,252.355,313.422,248.508z"/>
		</g>
	</g>
</g>
<g id="Finance__x2F__Money">
</g>
<g id="E-Commerce__x2F__Shopping">
</g>
<g id="Strategy">
</g>
<g>
</g>
<g>
</g>
<g>
</g>
<g>
</g>
<g>
</g>
<g>
</g>
<g>
</g>
<g>
</g>
<g>
</g>
<g>
</g>
<g>
</g>
<g>
</g>
<g>
</g>
<g>
</g>
<g>
</g>
</svg>
